/* XPM */
static char * ube16x16_xpm[] = {
"16 16 39 1",
" 	c None",
".	c #2142B9",
"+	c #2549CD",
"@	c #2548CC",
"#	c #1E3AA5",
"$	c #254BD7",
"%	c #1D43D3",
"&	c #274CD5",
"*	c #1E45D3",
"=	c #264CD7",
"-	c #7990E4",
";	c #EFF1FB",
">	c #264BD4",
",	c #2046D3",
"'	c #E4E8F9",
")	c #6982E1",
"!	c #274CD7",
"~	c #1C42D2",
"{	c #F5F6FC",
"]	c #FFFFFF",
"^	c #7B91E5",
"/	c #7189E3",
"(	c #EAEEFA",
"_	c #FDFEFF",
":	c #727170",
"<	c #8399ED",
"[	c #C2C2C0",
"}	c #ABAEBA",
"|	c #254BD4",
"1	c #8198EC",
"2	c #5F626C",
"3	c #2E53DC",
"4	c #A4A8B9",
"5	c #2943A1",
"6	c #244AD4",
"7	c #1D44D3",
"8	c #2243BE",
"9	c #274DD7",
"0	c #284EDB",
"                ",
"                ",
"                ",
"      .+@.      ",
"    #$%&&*=#    ",
"    =-;>,')!    ",
"   .~{]^/](%.   ",
"   @~_:</[}%@   ",
"   @|123,45>@   ",
"   .>67&&*|>8   ",
"    9&&&&&&0    ",
"    #9>&&>9#    ",
"      .+@.      ",
"                ",
"                ",
"                "};
