/* XPM */
static char * ube32x32_xpm[] = {
"32 32 19 1",
" 	c None",
".	c #152974",
"+	c #203FB2",
"@	c #274CD5",
"#	c #264BD4",
"$	c #1A328E",
"%	c #7B92E5",
"&	c #EEF0FB",
"*	c #5B77DF",
"=	c #E6E9F9",
"-	c #5371DD",
";	c #FFFFFF",
">	c #3B5CD8",
",	c #B0BDEF",
"'	c #94A5E9",
")	c #EFF2FC",
"!	c #E7ECFA",
"~	c #000000",
"{	c #091132",
"                                ",
"                                ",
"                                ",
"                                ",
"                                ",
"                                ",
"             .+@#+.             ",
"           +@@@@@@@@+           ",
"         $@@@@@@@@@@@@$         ",
"        $@@@@@@@@@@@@@@$        ",
"        @@@%&%@@@@*=*@@@        ",
"       +@@-;;;-@@>;;;>@@+       ",
"       @@@,;;;,@@';;;'@@@       ",
"      .@@@);;;)@@!;;;!@@@.      ",
"      +@@@);;;)@@!;;;!@@@+      ",
"      #@@@,;~~,@@';~~'@@@#      ",
"      #@@@-;~~-@@>;~~>@@@#      ",
"      +@@@@%&%@@@@*=*@@@@+      ",
"      .@@@@@@@@@@@@@@@@@@.      ",
"       @@@@@@@@@@@@@@@@@@       ",
"       +@@@@@@@@@@@@@@@@{       ",
"        @@@@@@@@@@@@@@@@        ",
"        $@@@@@@@@@@@@@@$        ",
"         $@@@@@@@@@@@@$         ",
"           +@@@@@@@@+           ",
"             .+@#+.             ",
"                                ",
"                                ",
"                                ",
"                                ",
"                                ",
"                                "};
